<svg width="363.999847" height="223.320801" viewBox="0 0 364 223.321" fill="none" xmlns="http://www.w3.org/2000/svg" xmlns:xlink="http://www.w3.org/1999/xlink">
	<desc>
			Created with Pixso.
	</desc>
	<defs/>
	<path id="Stroke-1" d="M267.101 1C286.446 1 302.13 21.5942 302.13 46.9983C302.13 63.3562 295.628 77.7195 285.831 85.8748" stroke="#7EE787" stroke-opacity="1.000000" stroke-width="2.000000" stroke-linejoin="round" stroke-linecap="round"/>
	<path id="Stroke-3" d="M232.067 46.9983C232.067 21.5942 247.752 1 267.099 1" stroke="#7EE787" stroke-opacity="1.000000" stroke-width="2.000000" stroke-linejoin="round" stroke-linecap="round"/>
	<path id="Stroke-5" d="M291.723 14.532C305.514 32.6404 305.514 62.0022 291.723 80.1106C280.689 94.6001 262.8 94.6001 251.766 80.1106C242.939 68.5208 242.939 49.7297 251.766 38.1399C258.827 28.8689 270.276 28.8689 277.337 38.1399C282.988 45.5601 282.988 57.5833 277.337 65.0017" stroke="#7EE787" stroke-opacity="1.000000" stroke-width="2.000000" stroke-linejoin="round" stroke-linecap="round"/>
	<path id="Stroke-7" d="M323.936 67.8574C327.647 65.4731 331.724 64.2368 335.855 64.2437C350.845 64.2437 363 80.2034 363 99.887C363 119.569 350.846 135.529 335.855 135.529C326.422 135.529 318.114 129.212 313.249 119.625" stroke="#7EE787" stroke-opacity="1.000000" stroke-width="2.000000" stroke-linejoin="round" stroke-linecap="round"/>
	<path id="Stroke-9" d="M302.464 46.4849C304 45.8779 305.63 45.5535 307.318 45.5535C316.611 45.5535 324.146 55.4453 324.146 67.6475" stroke="#7EE787" stroke-opacity="1.000000" stroke-width="2.000000" stroke-linejoin="round" stroke-linecap="round"/>
	<path id="Stroke-11" d="M354.687 125.372C344.196 139.146 327.188 139.146 316.698 125.372C308.308 114.356 308.308 96.4878 316.698 85.468C323.412 76.6533 334.296 76.6533 341.012 85.468C346.383 92.5198 346.383 103.957 341.012 111.009C339.991 112.351 338.778 113.415 337.443 114.141C336.108 114.867 334.677 115.241 333.232 115.241C331.787 115.241 330.356 114.867 329.021 114.141C327.686 113.415 326.473 112.351 325.451 111.009" stroke="#7EE787" stroke-opacity="1.000000" stroke-width="2.000000" stroke-linejoin="round" stroke-linecap="round"/>
	<path id="Stroke-13" d="M312.783 119.026C306.277 136.771 292.451 149.019 276.448 149.019C262.303 149.019 249.858 139.45 242.668 124.974" stroke="#7EE787" stroke-opacity="1.000000" stroke-width="2.000000" stroke-linejoin="round" stroke-linecap="round"/>
	<path id="Stroke-15" d="M242.126 124.999C236.903 136.809 227.165 144.752 216.015 144.752C203.986 144.752 193.603 135.51 188.757 122.141" stroke="#7EE787" stroke-opacity="1.000000" stroke-width="2.000000" stroke-linejoin="round" stroke-linecap="round"/>
	<path id="Stroke-17" d="M237.308 132.982C225.431 148.577 206.175 148.577 194.298 132.982C184.796 120.506 184.796 100.277 194.298 87.8013C201.899 77.8218 214.225 77.8218 221.826 87.8013C227.907 95.7864 227.907 108.732 221.826 116.717C219.489 119.784 216.321 121.507 213.017 121.507C209.713 121.507 206.544 119.784 204.208 116.717" stroke="#7EE787" stroke-opacity="1.000000" stroke-width="2.000000" stroke-linejoin="round" stroke-linecap="round"/>
	<path id="Stroke-19" d="M182.711 67.1021C187.952 51.3057 199.949 40.2629 213.91 40.2629C220.205 40.25 226.378 42.5408 231.736 46.8779" stroke="#7EE787" stroke-opacity="1.000000" stroke-width="2.000000" stroke-linejoin="round" stroke-linecap="round"/>
	<path id="Stroke-21" d="M115.631 105.833L138.241 105.833C145.787 105.833 151.903 97.8 151.903 87.8926C151.903 77.9849 145.787 69.9541 138.241 69.9541L115.663 69.9541C108.119 69.9541 102.001 61.9216 102.001 52.0142L102.001 51.3877C102.001 41.4802 108.119 33.4495 115.665 33.4495L185.288 33.4495" stroke="#7EE787" stroke-opacity="1.000000" stroke-width="2.000000" stroke-linejoin="round" stroke-linecap="round"/>
	<path id="Stroke-23" d="M15.8548 105.832L87.0225 105.832" stroke="#7EE787" stroke-opacity="1.000000" stroke-width="2.000000" stroke-linejoin="round" stroke-linecap="round"/>
	<path id="Stroke-25" d="M73.3928 178.461L98.6642 178.461C106.302 178.461 112.492 170.332 112.492 160.303C112.492 150.276 106.302 142.147 98.6642 142.147L73.9887 142.147" stroke="#7EE787" stroke-opacity="1.000000" stroke-width="2.000000" stroke-linejoin="round" stroke-linecap="round"/>
	<path id="Stroke-27" d="M114.202 214.773L180.44 214.773C188.121 214.773 194.347 206.598 194.347 196.512C194.347 186.427 188.121 178.251 180.44 178.251L158.268 178.251C151.158 178.251 145.394 170.683 145.394 161.345C145.394 152.01 151.158 144.442 158.266 144.442L215.965 144.442" stroke="#7EE787" stroke-opacity="1.000000" stroke-width="2.000000" stroke-linejoin="round" stroke-linecap="round"/>
	<path id="Stroke-29" d="M71.485 178.461C63.8485 178.461 57.6562 186.59 57.6562 196.617C57.6562 206.646 63.8485 214.773 71.4837 214.773L88.6109 214.773" stroke="#7EE787" stroke-opacity="1.000000" stroke-width="2.000000" stroke-linejoin="round" stroke-linecap="round"/>
	<path id="Stroke-31" d="M15.6958 142.146L37.511 142.146" stroke="#7EE787" stroke-opacity="1.000000" stroke-width="2.000000" stroke-linejoin="round" stroke-linecap="round"/>
	<path id="Stroke-1" d="M14.8287 106.251C7.19093 106.251 1 114.38 1 124.409C1 134.436 7.19093 142.565 14.8287 142.565L36.644 142.565" stroke="#7EE787" stroke-opacity="1.000000" stroke-width="2.000000" stroke-linejoin="round" stroke-linecap="round"/>
	<path id="Stroke-33" d="M56.0771 137.62L63.926 147.579" stroke="#7EE787" stroke-opacity="1.000000" stroke-width="2.000000" stroke-linejoin="round" stroke-linecap="round"/>
	<path id="Stroke-35" d="M45.0566 137.62L52.9055 147.579" stroke="#7EE787" stroke-opacity="1.000000" stroke-width="2.000000" stroke-linejoin="round" stroke-linecap="round"/>
	<path id="Stroke-37" d="M100.661 113.798L100.661 98.7683" stroke="#7EE787" stroke-opacity="1.000000" stroke-width="2.000000" stroke-linejoin="round" stroke-linecap="round"/>
	<path id="Stroke-39" d="M106.383 106.287L94.9261 106.287" stroke="#7EE787" stroke-opacity="1.000000" stroke-width="2.000000" stroke-linejoin="round" stroke-linecap="round"/>
	<path id="Stroke-41" d="M100.661 222.321L100.661 207.291" stroke="#7EE787" stroke-opacity="1.000000" stroke-width="2.000000" stroke-linejoin="round" stroke-linecap="round"/>
	<path id="Stroke-43" d="M106.383 214.81L94.9261 214.81" stroke="#7EE787" stroke-opacity="1.000000" stroke-width="2.000000" stroke-linejoin="round" stroke-linecap="round"/>
</svg>
