<svg width="402.008423" height="322.302917" viewBox="0 0 402.008 322.303" fill="none" xmlns="http://www.w3.org/2000/svg" xmlns:xlink="http://www.w3.org/1999/xlink">
	<desc>
			Created with Pixso.
	</desc>
	<defs/>
	<path id="Stroke-1" d="M148.377 84.1001L72.942 84.1001C67.6428 84.1001 62.5606 86.3336 58.8135 90.3092C55.0664 94.2848 52.9613 99.6769 52.9613 105.299C52.9613 117.006 61.9062 126.496 72.944 126.496L104.908 126.496C115.944 126.496 124.891 135.984 124.891 147.693C124.891 159.4 115.944 168.892 104.908 168.892L34.9789 168.892C23.9452 168.892 15.0002 178.381 15.0002 190.089C15.0002 201.798 23.9452 211.289 34.9789 211.289L87.4891 211.289" stroke="#939AFF" stroke-opacity="1.000000" stroke-width="2.000000" stroke-linejoin="round" stroke-linecap="round"/>
	<path id="Stroke-3" d="M213.923 84.1001L230.904 84.1001C241.938 84.1001 250.885 93.5884 250.885 105.299C250.885 117.006 241.938 126.496 230.902 126.496L182.831 126.496C180.207 126.496 177.609 127.044 175.185 128.109C172.761 129.174 170.558 130.736 168.703 132.704C166.848 134.672 165.376 137.009 164.372 139.581C163.368 142.153 162.852 144.91 162.852 147.693C162.852 159.4 171.795 168.892 182.831 168.892L200.813 168.892C211.847 168.892 220.792 178.381 220.792 190.089C220.792 201.798 211.847 211.289 200.813 211.289L133.24 211.289" stroke="#939AFF" stroke-opacity="1.000000" stroke-width="2.000000" stroke-linejoin="round" stroke-linecap="round"/>
	<path id="Stroke-5" d="M180.672 106.547C169.638 106.547 160.693 97.0546 160.693 85.3481C160.693 73.6415 169.638 64.1489 180.672 64.1489C191.708 64.1489 200.655 73.6415 200.655 85.3503L200.653 85.3481C200.653 97.0546 191.71 106.547 180.672 106.547Z" stroke="#939AFF" stroke-opacity="1.000000" stroke-width="2.000000" stroke-linejoin="round"/>
	<path id="Stroke-7" d="M56.1808 146.864L76.1615 146.864" stroke="#939AFF" stroke-opacity="1.000000" stroke-width="2.000000" stroke-linejoin="round" stroke-linecap="round"/>
	<path id="Stroke-9" d="M87.5634 148.364C87.1885 148.762 86.6799 148.986 86.1497 148.986C85.6194 148.986 85.1109 148.762 84.736 148.364C84.361 147.967 84.1504 147.427 84.1504 146.864C84.1504 146.302 84.361 145.762 84.736 145.364C85.1109 144.967 85.6194 144.743 86.1497 144.743C86.6799 144.743 87.1885 144.967 87.5634 145.364C87.9384 145.762 88.149 146.302 88.149 146.864C88.149 147.427 87.9384 147.967 87.5634 148.364Z" stroke="#939AFF" stroke-opacity="1.000000" stroke-width="2.000000" stroke-linejoin="round"/>
	<path id="Stroke-11" d="M10.652 108.039C10.4099 108.7 10.0453 109.302 9.57996 109.811C9.11456 110.319 8.55774 110.724 7.94244 111C7.32715 111.276 6.66589 111.419 5.9978 111.419C5.32971 111.419 4.66833 111.277 4.0528 111.002C3.43732 110.726 2.88019 110.322 2.41437 109.814C1.94861 109.306 1.58362 108.704 1.341 108.043C1.09845 107.383 0.983154 106.677 1.00208 105.969C1.03882 104.59 1.58075 103.281 2.51282 102.319C3.44489 101.357 4.69354 100.819 5.99371 100.818C7.29382 100.818 8.54291 101.355 9.47571 102.316C10.4085 103.277 10.9515 104.586 10.9893 105.964C11.0087 106.673 10.894 107.379 10.652 108.039Z" stroke="#939AFF" stroke-opacity="1.000000" stroke-width="2.000000" stroke-linejoin="round"/>
	<path id="Stroke-13" d="M110.264 218.445L110.264 201.539" stroke="#939AFF" stroke-opacity="1.000000" stroke-width="2.000000" stroke-linejoin="round" stroke-linecap="round"/>
	<path id="Stroke-15" d="M118.228 209.995L102.279 209.995" stroke="#939AFF" stroke-opacity="1.000000" stroke-width="2.000000" stroke-linejoin="round" stroke-linecap="round"/>
	<path id="Stroke-17" d="M335.148 72.3567L335.148 55.9453" stroke="#939AFF" stroke-opacity="1.000000" stroke-width="2.000000" stroke-linejoin="round" stroke-linecap="round"/>
	<path id="Stroke-19" d="M342.882 64.1533L327.399 64.1552" stroke="#939AFF" stroke-opacity="1.000000" stroke-width="2.000000" stroke-linejoin="round" stroke-linecap="round"/>
	<path id="Stroke-21" d="M398.737 35.5448C397.283 37.0877 395.31 37.9545 393.254 37.9545C391.197 37.9545 389.225 37.0877 387.77 35.5448C386.316 34.0018 385.499 31.9091 385.499 29.727C385.499 27.545 386.316 25.4523 387.77 23.9093C389.225 22.3663 391.197 21.4995 393.254 21.4995C395.31 21.4995 397.283 22.3663 398.737 23.9093C400.191 25.4523 401.008 27.545 401.008 29.727C401.008 31.9091 400.191 34.0018 398.737 35.5448Z" stroke="#939AFF" stroke-opacity="1.000000" stroke-width="2.000000" stroke-linejoin="round"/>
	<path id="Stroke-23" d="M263.654 12.1749C263.417 12.8576 262.91 13.3964 262.266 13.6494L253.268 17.1829C251.222 17.9856 251.222 21.0546 253.268 21.8573L262.266 25.393C262.91 25.6438 263.417 26.1826 263.654 26.8631L266.984 36.4103C267.743 38.5828 270.635 38.5828 271.392 36.4103L274.722 26.8631C274.84 26.5263 275.025 26.2205 275.264 25.9667C275.504 25.7129 275.792 25.5172 276.11 25.393L285.109 21.8594C287.156 21.0546 287.156 17.9856 285.109 17.1829L276.11 13.6494C275.792 13.5242 275.504 13.3277 275.264 13.0732C275.025 12.8187 274.84 12.5122 274.722 12.1749L271.392 2.62773C270.635 0.457424 267.743 0.457424 266.984 2.62773L263.654 12.1749Z" stroke="#939AFF" stroke-opacity="1.000000" stroke-width="2.000000" stroke-linejoin="round"/>
	<path id="Stroke-25" d="M155.159 295.44C155.041 295.777 154.857 296.083 154.617 296.337C154.378 296.591 154.089 296.787 153.771 296.912L144.773 300.446C142.727 301.248 142.727 304.317 144.773 305.12L153.771 308.656C154.415 308.907 154.923 309.445 155.159 310.126L158.49 319.675C159.25 321.845 162.141 321.845 162.897 319.675L166.228 310.126C166.345 309.789 166.53 309.483 166.77 309.229C167.009 308.976 167.298 308.78 167.615 308.656L176.614 305.122C178.661 304.317 178.661 301.248 176.614 300.446L167.615 296.912C167.298 296.787 167.01 296.591 166.77 296.337C166.531 296.083 166.346 295.777 166.228 295.44L162.897 285.89C162.141 283.72 159.248 283.72 158.49 285.89L155.159 295.44Z" stroke="#939AFF" stroke-opacity="1.000000" stroke-width="2.000000" stroke-linejoin="round"/>
</svg>
