<svg width="81.000000" height="452.000000" viewBox="0 0 81 452" fill="none" xmlns="http://www.w3.org/2000/svg" xmlns:xlink="http://www.w3.org/1999/xlink">
	<desc>
			Created with Pixso.
	</desc>
	<defs>
		<filter id="filter_0_354_dd" x="36.310387" y="206.098022" width="39.919151" height="39.919434" filterUnits="userSpaceOnUse" color-interpolation-filters="sRGB">
			<feFlood flood-opacity="0" result="BackgroundImageFix"/>
			<feColorMatrix in="SourceAlpha" type="matrix" values="0 0 0 0 0 0 0 0 0 0 0 0 0 0 0 0 0 0 127 0" result="hardAlpha"/>
			<feOffset dx="0" dy="0"/>
			<feGaussianBlur stdDeviation="1.55172"/>
			<feComposite in2="hardAlpha" operator="out" k2="-1" k3="1"/>
			<feColorMatrix type="matrix" values="0 0 0 0 1 0 0 0 0 0.71765 0 0 0 0 0.48627 0 0 0 1 0"/>
			<feBlend mode="normal" in2="BackgroundImageFix" result="effect_dropShadow_1"/>
			<feColorMatrix in="SourceAlpha" type="matrix" values="0 0 0 0 0 0 0 0 0 0 0 0 0 0 0 0 0 0 127 0" result="hardAlpha"/>
			<feOffset dx="0" dy="0"/>
			<feGaussianBlur stdDeviation="4.65517"/>
			<feComposite in2="hardAlpha" operator="out" k2="-1" k3="1"/>
			<feColorMatrix type="matrix" values="0 0 0 0 1 0 0 0 0 0.71765 0 0 0 0 0.48627 0 0 0 1 0"/>
			<feBlend mode="normal" in2="effect_dropShadow_1" result="effect_dropShadow_2"/>
			<feBlend mode="normal" in="SourceGraphic" in2="effect_dropShadow_2" result="shape"/>
		</filter>
		<clipPath id="clip0_352">
			<rect width="81.000000" height="452.000000" fill="white" fill-opacity="0"/>
		</clipPath>
		<linearGradient id="paint_linear_0_353_0" x1="22.344849" y1="0.224121" x2="22.344849" y2="451.778015" gradientUnits="userSpaceOnUse">
<stop offset="0.051574" stop-color="#30363D">
    <animate attributeName="stop-color" values="#30363D;#FFB77C;#30363D" dur="5s" keyTimes="0;0.5;1" repeatCount="indefinite" />
</stop>
<stop offset="0.225992" stop-color="#FFB77C">
    <animate attributeName="stop-color" values="#FFB77C;#EA6045;#FFB77C" dur="5s" keyTimes="0;0.5;1" repeatCount="indefinite" />
</stop>
<stop offset="0.561417" stop-color="#EA6045">
    <animate attributeName="stop-color" values="#EA6045;#FFB77C;#EA6045" dur="5s" keyTimes="0;0.5;1" repeatCount="indefinite" />
</stop>
<stop offset="0.791714" stop-color="#FFB77C">
    <animate attributeName="stop-color" values="#FFB77C;#30363D;#FFB77C" dur="5s" keyTimes="0;0.5;1" repeatCount="indefinite" />
</stop>
<stop offset="0.956186" stop-color="#000000" stop-opacity="0.031373">
    <animate attributeName="stop-color" values="#000000;#000000;#000000" dur="5s" keyTimes="0;0.5;1" repeatCount="indefinite" />
</stop>
		</linearGradient>
	</defs>
	<g clip-path="url(#clip0_352)">
		<path d="M1.86231 0.224121L1.8622 31.4314C1.86211 57.0217 11.5022 81.6729 28.8622 100.474C46.222 119.276 55.8621 143.927 55.8621 169.518L55.8621 281.085C55.8621 306.954 46.2379 331.899 28.8622 351.065C11.4865 370.23 1.86227 395.176 1.86222 421.045L1.86215 451.776" stroke="url(#paint_linear_0_353_0)" stroke-opacity="1.000000" stroke-width="2.793103"/>
		<g filter="url(#filter_0_354_dd)">
			<path d="M62.264 226.058C62.264 222.747 59.5804 220.064 56.27 220.064C52.9595 220.064 50.2759 222.747 50.2759 226.058C50.2759 229.368 52.9595 232.052 56.27 232.052C59.5804 232.052 62.264 229.368 62.264 226.058Z" fill="#FFB77C" fill-opacity="1.000000" fill-rule="evenodd"/>
			<path d="M56.27 221.46C58.8091 221.46 60.8675 223.519 60.8675 226.058C60.8675 228.597 58.8091 230.655 56.27 230.655C53.7308 230.655 51.6725 228.597 51.6725 226.058C51.6725 223.519 53.7308 221.46 56.27 221.46Z" fill="#FFB77C" fill-opacity="1.000000" fill-rule="nonzero"/>
			<path d="M56.27 221.46C53.7308 221.46 51.6725 223.519 51.6725 226.058C51.6725 228.597 53.7308 230.655 56.27 230.655C58.8091 230.655 60.8675 228.597 60.8675 226.058C60.8675 223.519 58.8091 221.46 56.27 221.46Z" stroke="#FFFFFF" stroke-opacity="1.000000" stroke-width="2.793103"/>
		</g>
	</g>
</svg>
