<svg width="43.000000" height="43.000000" viewBox="0 0 43 43" fill="none" xmlns="http://www.w3.org/2000/svg" xmlns:xlink="http://www.w3.org/1999/xlink">
	<desc>
			Created with Pixso.
	</desc>
	<defs/>
	<path id="Vector" d="M21.4929 0C16.3887 0.00274658 11.4519 1.86682 7.56525 5.25891C3.67853 8.651 1.0954 13.35 0.277771 18.5155C-0.539917 23.681 0.461182 28.9764 3.10211 33.4546C5.74298 37.9328 9.85138 41.3019 14.6927 42.9595C15.7609 43.1639 16.1631 42.4813 16.1631 41.9009C16.1631 41.3206 16.1418 39.6378 16.1346 37.7981C10.1534 39.1304 8.88953 35.1955 8.88953 35.1955C7.914 32.6403 6.50409 31.9687 6.50409 31.9687C4.5531 30.6035 6.65009 30.629 6.65009 30.629C8.81122 30.786 9.9469 32.9031 9.9469 32.9031C11.8624 36.2723 14.9775 35.2977 16.2023 34.7283C16.3945 33.301 16.9536 32.3301 17.5695 31.7789C12.7916 31.2241 7.77155 29.3333 7.77155 20.8866C7.74194 18.696 8.53479 16.5776 9.98608 14.9696C9.76532 14.4147 9.02838 12.1735 10.1961 9.12921C10.1961 9.12921 12.0012 8.5379 16.1097 11.3887C19.6338 10.4006 23.352 10.4006 26.876 11.3887C30.981 8.5379 32.7825 9.12921 32.7825 9.12921C33.9539 12.1662 33.2169 14.4075 32.9962 14.9696C34.452 16.5778 35.2465 18.7 35.2142 20.8939C35.2142 29.3588 30.1835 31.2241 25.3985 31.7679C26.1675 32.4542 26.8547 33.7938 26.8547 35.8525C26.8547 38.8019 26.8297 41.1746 26.8297 41.9009C26.8297 42.4886 27.2178 43.1749 28.3073 42.9595C33.1492 41.3018 37.258 37.932 39.8989 33.453C42.5397 28.9741 43.5403 23.6779 42.7217 18.5119C41.9031 13.3459 39.3187 8.64691 35.4307 5.25537C31.5427 1.86383 26.6048 0.000976562 21.5 0L21.4929 0Z" fill="#939AFF" fill-opacity="1.000000" fill-rule="evenodd"/>
</svg>
