<svg width="27.982853" height="338.044922" viewBox="0 0 27.9829 338.045" fill="none" xmlns="http://www.w3.org/2000/svg" xmlns:xlink="http://www.w3.org/1999/xlink">
	<desc>
			Created with Pixso.
	</desc>
	<defs>
		<filter id="filter_4_226_dd" x="0.000000" y="0.000000" width="27.982853" height="338.044922" filterUnits="userSpaceOnUse" color-interpolation-filters="sRGB">
			<feFlood flood-opacity="0" result="BackgroundImageFix"/>
			<feColorMatrix in="SourceAlpha" type="matrix" values="0 0 0 0 0 0 0 0 0 0 0 0 0 0 0 0 0 0 127 0" result="hardAlpha"/>
			<feOffset dx="0" dy="4"/>
			<feGaussianBlur stdDeviation="1.33333"/>
			<feComposite in2="hardAlpha" operator="out" k2="-1" k3="1"/>
			<feColorMatrix type="matrix" values="0 0 0 0 0 0 0 0 0 0 0 0 0 0 0 0 0 0 0.25 0"/>
			<feBlend mode="normal" in2="BackgroundImageFix" result="effect_dropShadow_1"/>
			<feBlend mode="normal" in="SourceGraphic" in2="effect_dropShadow_1" result="shape"/>
		</filter>
		<linearGradient id="paint_linear_4_226_0" x1="-64.000000" y1="517186.187500" x2="-64.000000" y2="517346.687500" gradientUnits="userSpaceOnUse">
			<stop stop-color="#B384F9"/>
			<stop offset="1.000000" stop-color="#7EE787"/>
		</linearGradient>
	</defs>
	<g filter="url(#filter_4_226_dd)"/>
	<path d="M15.4914 7.5L15.4914 328.539L12.4914 328.539L12.4914 7.5L15.4914 7.5ZM13.9914 15Q13.8073 15 13.6234 14.991Q13.4395 14.9819 13.2563 14.9639Q13.0731 14.9458 12.891 14.9188Q12.7088 14.8918 12.5283 14.8559Q12.3477 14.82 12.1691 14.7752Q11.9905 14.7305 11.8143 14.6771Q11.6381 14.6236 11.4648 14.5616Q11.2914 14.4996 11.1213 14.4291Q10.9512 14.3586 10.7848 14.2799Q10.6183 14.2012 10.456 14.1144Q10.2936 14.0276 10.1357 13.933Q9.97774 13.8383 9.82465 13.736Q9.67157 13.6337 9.52369 13.5241Q9.3758 13.4144 9.23348 13.2976Q9.09116 13.1808 8.95474 13.0571Q8.81832 12.9335 8.68813 12.8033Q8.55794 12.6731 8.4343 12.5367Q8.31065 12.4003 8.19385 12.2579Q8.07705 12.1156 7.96737 11.9677Q7.8577 11.8199 7.75541 11.6668Q7.65312 11.5137 7.55847 11.3558Q7.46381 11.1978 7.37702 11.0355Q7.29023 10.8731 7.21151 10.7067Q7.13279 10.5402 7.06233 10.3701Q6.99188 10.2 6.92985 10.0267Q6.86782 9.85332 6.81438 9.67713Q6.76093 9.50095 6.7162 9.32235Q6.67146 9.14375 6.63554 8.96318Q6.59962 8.7826 6.57261 8.60048Q6.54559 8.41836 6.52755 8.23513Q6.5095 8.0519 6.50047 7.86801Q6.49143 7.68411 6.49143 7.5Q6.49143 7.31589 6.50047 7.13199Q6.5095 6.9481 6.52755 6.76487Q6.54559 6.58164 6.57261 6.39952Q6.59962 6.2174 6.63554 6.03682Q6.67146 5.85625 6.7162 5.67765Q6.76093 5.49905 6.81438 5.32286Q6.86782 5.14668 6.92985 4.97333Q6.99188 4.79997 7.06233 4.62987Q7.13279 4.45977 7.21151 4.29334Q7.29023 4.1269 7.37702 3.96452Q7.46381 3.80215 7.55847 3.64423Q7.65312 3.48631 7.75541 3.33322Q7.8577 3.18014 7.96737 3.03225Q8.07705 2.88437 8.19385 2.74205Q8.31065 2.59973 8.4343 2.46331Q8.55794 2.32689 8.68813 2.1967Q8.81832 2.06651 8.95474 1.94287Q9.09116 1.81922 9.23348 1.70242Q9.3758 1.58562 9.52369 1.47594Q9.67157 1.36627 9.82465 1.26398Q9.97774 1.16169 10.1357 1.06704Q10.2936 0.972381 10.456 0.88559Q10.6183 0.798799 10.7848 0.72008Q10.9512 0.641361 11.1213 0.570903Q11.2914 0.500446 11.4648 0.438419Q11.6381 0.376393 11.8143 0.322947Q11.9905 0.269502 12.1691 0.224766Q12.3477 0.180029 12.5283 0.14411Q12.7088 0.108191 12.891 0.0811762Q13.0731 0.0541609 13.2563 0.0361145Q13.4395 0.0180682 13.6234 0.00903408Q13.8073 0 13.9914 0Q14.1755 0 14.3594 0.00903408Q14.5433 0.0180682 14.7266 0.0361145Q14.9098 0.0541609 15.0919 0.0811762Q15.274 0.108191 15.4546 0.14411Q15.6352 0.180029 15.8138 0.224766Q15.9924 0.269502 16.1686 0.322947Q16.3448 0.376393 16.5181 0.438419Q16.6915 0.500446 16.8616 0.570903Q17.0317 0.641361 17.1981 0.72008Q17.3645 0.798799 17.5269 0.88559Q17.6893 0.972381 17.8472 1.06704Q18.0051 1.16169 18.1582 1.26398Q18.3113 1.36627 18.4592 1.47594Q18.6071 1.58562 18.7494 1.70242Q18.8917 1.81922 19.0281 1.94287Q19.1645 2.06651 19.2947 2.1967Q19.4249 2.32689 19.5486 2.46331Q19.6722 2.59973 19.789 2.74205Q19.9058 2.88437 20.0155 3.03225Q20.1252 3.18014 20.2275 3.33322Q20.3297 3.48631 20.4244 3.64423Q20.519 3.80215 20.6058 3.96452Q20.6926 4.1269 20.7713 4.29334Q20.8501 4.45977 20.9205 4.62987Q20.991 4.79997 21.053 4.97333Q21.115 5.14668 21.1685 5.32287Q21.2219 5.49905 21.2667 5.67765Q21.3114 5.85625 21.3473 6.03682Q21.3832 6.2174 21.4103 6.39952Q21.4373 6.58164 21.4553 6.76487Q21.4734 6.9481 21.4824 7.13199Q21.4914 7.31589 21.4914 7.5Q21.4914 7.68411 21.4824 7.86801Q21.4734 8.0519 21.4553 8.23513Q21.4373 8.41836 21.4103 8.60048Q21.3832 8.7826 21.3473 8.96318Q21.3114 9.14375 21.2667 9.32235Q21.2219 9.50095 21.1685 9.67713Q21.115 9.85332 21.053 10.0267Q20.991 10.2 20.9205 10.3701Q20.8501 10.5402 20.7713 10.7067Q20.6926 10.8731 20.6058 11.0355Q20.519 11.1978 20.4244 11.3558Q20.3297 11.5137 20.2275 11.6668Q20.1252 11.8199 20.0155 11.9677Q19.9058 12.1156 19.789 12.2579Q19.6722 12.4003 19.5486 12.5367Q19.4249 12.6731 19.2947 12.8033Q19.1645 12.9335 19.0281 13.0571Q18.8917 13.1808 18.7494 13.2976Q18.6071 13.4144 18.4592 13.5241Q18.3113 13.6337 18.1582 13.736Q18.0051 13.8383 17.8472 13.933Q17.6893 14.0276 17.5269 14.1144Q17.3645 14.2012 17.1981 14.2799Q17.0317 14.3586 16.8616 14.4291Q16.6915 14.4996 16.5181 14.5616Q16.3448 14.6236 16.1686 14.6771Q15.9924 14.7305 15.8138 14.7752Q15.6352 14.82 15.4546 14.8559Q15.274 14.8918 15.0919 14.9188Q14.9098 14.9458 14.7266 14.9639Q14.5433 14.9819 14.3594 14.991Q14.1755 15 13.9914 15ZM13.9914 326.417L21.4161 318.993C22.01 318.399 22.9434 318.399 23.5374 318.993C24.1313 319.587 24.1314 320.521 23.5374 321.114L15.0521 329.6C14.4581 330.193 13.5247 330.193 12.9308 329.6L4.44547 321.114C3.8515 320.521 3.85151 319.587 4.44548 318.993C5.03944 318.399 5.97284 318.399 6.56681 318.993L13.9914 326.417Z" fill="url(#paint_linear_4_226_0)" fill-opacity="1.000000" fill-rule="evenodd"/>
</svg>
