<svg width="43.000000" height="42.808777" viewBox="0 0 43 42.8088" fill="none" xmlns="http://www.w3.org/2000/svg" xmlns:xlink="http://www.w3.org/1999/xlink">
	<desc>
			Created with Pixso.
	</desc>
	<defs/>
	<path id="Vector" d="M39.817 0L3.17462 0C1.41934 0 0 1.37958 0 3.08527L0 39.7151C0 41.4208 1.41934 42.8088 3.17462 42.8088L39.817 42.8088C41.5723 42.8088 43 41.4208 43 39.7235L43 3.08527C43 1.37958 41.5723 0 39.817 0ZM12.7572 36.4794L6.37442 36.4794L6.37442 16.0449L12.7572 16.0449L12.7572 36.4794ZM9.56583 13.2607C7.5166 13.2607 5.86212 11.6135 5.86212 9.58179C5.86212 7.55005 7.5166 5.90295 9.56583 5.90295C11.6066 5.90295 13.2611 7.55005 13.2611 9.58179C13.2611 11.6052 11.6066 13.2607 9.56583 13.2607ZM36.6424 36.4794L30.268 36.4794L30.268 26.5464C30.268 24.1802 30.226 21.1285 26.9506 21.1285C23.6332 21.1285 23.1293 23.712 23.1293 26.3792L23.1293 36.4794L16.7633 36.4794L16.7633 16.0449L22.8773 16.0449L22.8773 18.8375L22.9613 18.8375C23.8096 17.2322 25.8924 15.5349 28.9914 15.5349C35.4498 15.5349 36.6424 19.7656 36.6424 25.2672L36.6424 36.4794Z" fill="#939AFF" fill-opacity="1.000000" fill-rule="nonzero"/>
</svg>
