<svg width="352.670166" height="124.901855" viewBox="0 0 352.67 124.902" fill="none" xmlns="http://www.w3.org/2000/svg" xmlns:xlink="http://www.w3.org/1999/xlink">
	<desc>
			Created with Pixso.
	</desc>
	<defs/>
	<path id="Fill-1" d="M192.158 108.605L140.938 108.605C123.966 108.605 110.207 91.8252 110.207 71.1289C110.207 50.4326 123.966 33.6523 140.938 33.6523L192.158 33.6523C209.13 33.6523 222.89 50.4326 222.89 71.1289C222.89 91.8252 209.13 108.605 192.158 108.605Z" fill="#F9F7FC" fill-opacity="1.000000" fill-rule="evenodd"/>
	<path id="Stroke-3" d="M276.286 37.5161C276.224 37.7246 276.125 37.9141 275.998 38.0718C275.87 38.229 275.716 38.3506 275.547 38.4277L270.76 40.6147C269.672 41.1138 269.672 43.0151 270.76 43.5137L275.547 45.7012C275.89 45.8584 276.16 46.1904 276.286 46.6128L278.057 52.5278C278.462 53.874 280.001 53.874 280.404 52.5278L282.176 46.6128C282.302 46.1919 282.572 45.8584 282.915 45.7026L287.702 43.5137C288.791 43.0151 288.791 41.1138 287.702 40.6167L282.915 38.4277C282.746 38.3506 282.592 38.229 282.464 38.0718C282.337 37.9146 282.238 37.7246 282.176 37.5161L280.405 31.6006C280 30.2563 278.461 30.2578 278.058 31.6021L276.286 37.5161Z" stroke="#C194FC" stroke-opacity="1.000000" stroke-width="2.000000" stroke-linejoin="round"/>
	<path id="Fill-5" d="M261.276 3.82422C261.276 4.83838 260.95 5.81104 260.369 6.52832C259.789 7.24561 259.001 7.64844 258.18 7.64844C257.359 7.64844 256.572 7.24561 255.991 6.52832C255.411 5.81104 255.085 4.83838 255.085 3.82422C255.085 2.81006 255.411 1.8374 255.991 1.12012C256.572 0.402832 257.359 0 258.18 0C259.001 0 259.789 0.402832 260.369 1.12012C260.95 1.8374 261.276 2.81006 261.276 3.82422Z" fill="#C69AFD" fill-opacity="1.000000" fill-rule="evenodd"/>
	<path id="Stroke-7" d="M31.4707 113.222C31.4286 113.361 31.3629 113.487 31.2778 113.592C31.1928 113.697 31.0905 113.777 30.9779 113.829L27.7856 115.29C27.0612 115.621 27.0612 116.889 27.7856 117.219L30.9779 118.678C31.2057 118.784 31.3865 119.005 31.4707 119.289L32.652 123.23C32.7112 123.428 32.8178 123.598 32.9575 123.718C33.0972 123.837 33.2632 123.902 33.4333 123.902C33.6035 123.902 33.7696 123.837 33.9093 123.718C34.049 123.598 34.1556 123.428 34.2147 123.23L35.3961 119.289C35.4374 119.149 35.5029 119.021 35.588 118.916C35.6731 118.811 35.7758 118.729 35.8889 118.678L39.0812 117.219C39.8055 116.889 39.8055 115.621 39.0812 115.29L35.8889 113.829C35.7762 113.778 35.6738 113.697 35.5887 113.592C35.5037 113.487 35.438 113.361 35.3961 113.222L34.2147 109.277C34.1556 109.08 34.049 108.91 33.9093 108.79C33.7696 108.67 33.6035 108.605 33.4333 108.605C33.2632 108.605 33.0972 108.67 32.9575 108.79C32.8178 108.91 32.7112 109.082 32.652 109.278L31.4707 113.222Z" stroke="#C194FC" stroke-opacity="1.000000" stroke-width="2.000000" stroke-linejoin="round"/>
	<path id="Stroke-9" d="M231.133 80.5464C229.275 82.8413 226.755 84.1309 224.128 84.1309C221.501 84.1309 218.981 82.8413 217.123 80.5464C215.265 78.2515 214.222 75.1392 214.222 71.8936C214.222 68.6479 215.265 65.5352 217.123 63.2402C218.981 60.9453 221.501 59.6562 224.128 59.6562C226.755 59.6562 229.275 60.9453 231.133 63.2402C232.99 65.5352 234.034 68.6479 234.034 71.8936C234.034 75.1392 232.99 78.2515 231.133 80.5464Z" stroke="#C194FC" stroke-opacity="1.000000" stroke-width="2.000000" stroke-linejoin="round"/>
	<path id="Stroke-11" d="M55.7224 71.1289L81.7262 71.1289" stroke="#C194FC" stroke-opacity="1.000000" stroke-width="2.000000" stroke-linecap="round"/>
	<path id="Fill-13" d="M79.2496 52.7729C79.2496 53.0747 79.2014 53.373 79.108 53.6514C79.0145 53.9297 78.8776 54.1826 78.705 54.396C78.5324 54.6089 78.3275 54.7778 78.1021 54.8931C77.8766 55.0083 77.635 55.0679 77.391 55.0674C77.147 55.0674 76.9054 55.0078 76.68 54.8926C76.4546 54.7769 76.2498 54.6079 76.0773 54.3945C75.9048 54.1816 75.7681 53.9282 75.6747 53.6499C75.5815 53.3716 75.5335 53.0728 75.5336 52.7715C75.5338 52.1626 75.7297 51.5791 76.0782 51.1489C76.4268 50.7183 76.8994 50.4771 77.3922 50.4771C77.885 50.4771 78.3575 50.7192 78.7059 51.1499C79.0542 51.5806 79.2498 52.1646 79.2496 52.7729Z" fill="#C69AFD" fill-opacity="1.000000" fill-rule="evenodd"/>
	<path id="Fill-15" d="M6.19141 95.6035C6.19141 96.6177 5.86523 97.5903 5.28467 98.3076C4.7041 99.0249 3.91669 99.4277 3.0957 99.4277C2.27466 99.4277 1.48724 99.0249 0.906677 98.3076C0.326172 97.5903 0 96.6177 0 95.6035C0 94.5894 0.326172 93.6167 0.906677 92.8994C1.48724 92.1821 2.27466 91.7793 3.0957 91.7793C3.91669 91.7793 4.7041 92.1821 5.28467 92.8994C5.86523 93.6167 6.19141 94.5894 6.19141 95.6035Z" fill="#C69AFD" fill-opacity="1.000000" fill-rule="evenodd"/>
	<path id="Stroke-17" d="M191.313 113.194L191.313 102.487" stroke="#C194FC" stroke-opacity="1.000000" stroke-width="2.000000" stroke-linejoin="round" stroke-linecap="round"/>
	<path id="Stroke-19" d="M195.647 107.839L186.979 107.842" stroke="#C194FC" stroke-opacity="1.000000" stroke-width="2.000000" stroke-linejoin="round" stroke-linecap="round"/>
	<path id="Stroke-21" d="M132.495 52.7729L85.4409 52.7729" stroke="#C194FC" stroke-opacity="1.000000" stroke-width="2.000000" stroke-linejoin="round" stroke-linecap="round"/>
	<path id="Stroke-23" d="M351.67 109.37L339.287 109.37" stroke="#C194FC" stroke-opacity="1.000000" stroke-width="2.000000" stroke-linejoin="round" stroke-linecap="round"/>
	<path id="Stroke-25" d="M321.952 109.37L278.612 109.37" stroke="#C194FC" stroke-opacity="1.000000" stroke-width="2.000000" stroke-linejoin="round" stroke-linecap="round"/>
</svg>
