<svg width="88.000000" height="88.000000" viewBox="0 0 88 88" fill="none" xmlns="http://www.w3.org/2000/svg" xmlns:xlink="http://www.w3.org/1999/xlink">
	<desc>
			Created with Pixso.
	</desc>
	<defs>
		<filter id="filter_0_461_dd" x="0.000000" y="0.000000" width="88.000000" height="88.000000" filterUnits="userSpaceOnUse" color-interpolation-filters="sRGB">
			<feFlood flood-opacity="0" result="BackgroundImageFix"/>
			<feBlend mode="normal" in="SourceGraphic" in2="BackgroundImageFix" result="shape"/>
			<feGaussianBlur stdDeviation="9.33333" result="effect_layerBlur_1"/>
		</filter>
	</defs>
	<g filter="url(#filter_0_461_dd)">
		<rect x="28.000000" y="28.000000" rx="16.000000" width="32.000000" height="32.000000" fill="#57D364" fill-opacity="1.000000"/>
	</g>
	<path d="M58.2195 52.3677C58.0487 51.499 57.7641 50.6304 57.4225 49.8198C56.17 46.8086 53.8928 44.3184 51.1032 42.8706C51.9003 41.6548 52.3557 40.207 52.3557 38.6436C52.3557 34.4165 48.9968 31 44.8409 31C40.685 31 37.3261 34.4165 37.3261 38.6436C37.3261 40.207 37.7815 41.6548 38.5786 42.8706C34.8781 44.7817 32.2593 48.2563 31.4053 52.3096C31.1776 53.4678 31.4623 54.626 32.1454 55.5522C32.8855 56.479 33.9672 57 35.1058 57L54.5191 57C55.6577 57 56.7393 56.479 57.4794 55.5522C58.2195 54.6836 58.5042 53.5254 58.2195 52.3677ZM44.784 33.4321C47.6305 33.4321 49.9077 35.8062 49.9077 38.6436C49.9077 41.481 47.5736 43.8555 44.784 43.8555C41.9374 43.8555 39.6602 41.481 39.6602 38.6436C39.6602 35.8062 41.9944 33.4321 44.784 33.4321ZM55.6007 54.1045C55.3161 54.4521 54.9176 54.626 54.5191 54.626L35.1058 54.626C34.6504 54.626 34.2518 54.4521 34.0241 54.1045C33.7395 53.7573 33.6256 53.2939 33.7395 52.8887C34.4796 49.3564 36.8706 46.3452 40.1157 44.7817C40.1726 44.7817 40.1726 44.7236 40.2295 44.7236C41.482 45.708 43.0761 46.3452 44.784 46.3452C46.4919 46.3452 48.0859 45.7661 49.3953 44.7236C49.4523 44.7236 49.4523 44.7817 49.5092 44.7817C52.0711 45.9976 54.1205 48.0825 55.2022 50.7461C55.4869 51.4409 55.7146 52.1357 55.8854 52.8887C55.9992 53.2358 55.8854 53.7573 55.6007 54.1045Z" fill="#D1E8D3" fill-opacity="1.000000" fill-rule="nonzero"/>
</svg>
