<svg width="480.920166" height="287.368164" viewBox="0 0 480.92 287.368" fill="none" xmlns="http://www.w3.org/2000/svg" xmlns:xlink="http://www.w3.org/1999/xlink">
	<desc>
			Created with Pixso.
	</desc>
	<defs/>
	<path id="Stroke-4" d="M8.29272 217.112C8.10254 217.572 7.82349 217.991 7.4715 218.344C7.11951 218.696 6.70148 218.977 6.24133 219.167C5.78113 219.359 5.28784 219.458 4.78949 219.458C4.29114 219.458 3.79779 219.359 3.33759 219.167C2.87744 218.977 2.45941 218.696 2.10748 218.343C1.75562 217.99 1.47662 217.572 1.28662 217.111C1.09662 216.65 0.999207 216.156 1 215.658C0.998901 214.652 1.3974 213.687 2.10785 212.974C2.8183 212.262 3.78253 211.861 4.78845 211.86C5.28687 211.86 5.78033 211.959 6.2406 212.15C6.70093 212.341 7.11902 212.621 7.47113 212.974C7.82324 213.327 8.10236 213.746 8.29266 214.206C8.48291 214.667 8.58057 215.161 8.58002 215.659C8.58057 216.157 8.48291 216.651 8.29272 217.112Z" stroke="#B384F9" stroke-opacity="1.000000" stroke-width="2.000000" stroke-linejoin="round"/>
	<path id="Stroke-1" d="M375.252 9.17041L375.252 1" stroke="#B384F9" stroke-opacity="1.000000" stroke-width="2.000000" stroke-linejoin="round" stroke-linecap="round"/>
	<path id="Stroke-3" d="M379.847 5.5957L371.678 5.5957" stroke="#B384F9" stroke-opacity="1.000000" stroke-width="2.000000" stroke-linejoin="round" stroke-linecap="round"/>
	<path id="Stroke-6" d="M413.012 169.97C412.302 170.682 411.337 171.083 410.331 171.084C409.833 171.083 409.339 170.984 408.879 170.793C408.419 170.602 408.002 170.322 407.65 169.969C407.298 169.616 407.019 169.198 406.829 168.737C406.639 168.277 406.542 167.783 406.542 167.285C406.541 166.279 406.94 165.314 407.651 164.602C408.361 163.89 409.325 163.489 410.331 163.488C411.337 163.489 412.302 163.89 413.012 164.602C413.723 165.314 414.122 166.28 414.121 167.286C414.122 168.292 413.723 169.258 413.012 169.97Z" stroke="#B384F9" stroke-opacity="1.000000" stroke-width="2.000000" stroke-linejoin="round"/>
	<path id="Stroke-8" d="M226.249 286.368L188.906 286.368" stroke="#B384F9" stroke-opacity="1.000000" stroke-width="2.000000" stroke-linejoin="round" stroke-linecap="round"/>
	<path id="Stroke-10" d="M180.119 286.368L172.98 286.368" stroke="#B384F9" stroke-opacity="1.000000" stroke-width="2.000000" stroke-linejoin="round" stroke-linecap="round"/>
	<path id="Stroke-12" d="M259.645 187.866C259.645 174.657 270.331 163.95 283.512 163.95C296.695 163.95 307.38 174.657 307.38 187.866C307.38 196.371 302.948 203.839 296.274 208.079" stroke="#B384F9" stroke-opacity="1.000000" stroke-width="2.000000" stroke-linejoin="round" stroke-linecap="round"/>
	<path id="Stroke-14" d="M300.287 170.986C309.684 180.401 309.684 195.667 300.287 205.082C292.77 212.615 280.582 212.615 273.065 205.082C267.051 199.056 267.051 189.287 273.065 183.261C277.875 178.44 285.677 178.44 290.487 183.261C294.336 187.116 294.336 193.37 290.487 197.226" stroke="#B384F9" stroke-opacity="1.000000" stroke-width="2.000000" stroke-linejoin="round" stroke-linecap="round"/>
	<path id="Stroke-16" d="M322.235 198.711C324.762 197.471 327.54 196.828 330.355 196.832C340.57 196.832 348.849 205.129 348.849 215.364C348.849 225.598 340.57 233.895 330.355 233.895C323.929 233.895 318.269 230.611 314.955 225.626" stroke="#B384F9" stroke-opacity="1.000000" stroke-width="2.000000" stroke-linejoin="round" stroke-linecap="round"/>
	<path id="Stroke-18" d="M307.606 187.597C308.679 187.275 309.794 187.112 310.914 187.113C317.246 187.113 322.377 192.256 322.377 198.602" stroke="#B384F9" stroke-opacity="1.000000" stroke-width="2.000000" stroke-linejoin="round" stroke-linecap="round"/>
	<path id="Stroke-20" d="M343.186 228.615C336.039 235.775 324.451 235.775 317.304 228.615C311.588 222.885 311.588 213.597 317.304 207.868C321.879 203.283 329.295 203.283 333.869 207.868C337.529 211.534 337.529 217.48 333.869 221.146" stroke="#B384F9" stroke-opacity="1.000000" stroke-width="2.000000" stroke-linejoin="round" stroke-linecap="round"/>
	<path id="Stroke-22" d="M314.637 225.314C310.203 234.54 300.785 240.908 289.881 240.908C280.244 240.908 271.767 235.934 266.866 228.407" stroke="#B384F9" stroke-opacity="1.000000" stroke-width="2.000000" stroke-linejoin="round" stroke-linecap="round"/>
	<path id="Stroke-24" d="M266.497 228.419C262.94 234.561 256.305 238.691 248.708 238.691C240.512 238.691 233.438 233.885 230.136 226.933" stroke="#B384F9" stroke-opacity="1.000000" stroke-width="2.000000" stroke-linejoin="round" stroke-linecap="round"/>
	<path id="Stroke-26" d="M263.216 232.57C255.123 240.679 242.003 240.679 233.911 232.57C227.436 226.084 227.436 215.566 233.911 209.081C239.09 203.891 247.487 203.891 252.666 209.081C256.81 213.232 256.81 219.963 252.666 224.114C251.879 224.904 250.943 225.531 249.913 225.958C248.883 226.386 247.779 226.606 246.664 226.606C245.549 226.606 244.445 226.386 243.415 225.958C242.385 225.531 241.45 224.904 240.662 224.114C239.389 222.837 238.673 221.107 238.673 219.304C238.673 217.5 239.389 215.77 240.662 214.493" stroke="#B384F9" stroke-opacity="1.000000" stroke-width="2.000000" stroke-linejoin="round" stroke-linecap="round"/>
	<path id="Stroke-28" d="M226.667 196.947C230.517 189.472 238.299 184.362 247.272 184.362C251.562 184.355 255.769 185.547 259.418 187.803" stroke="#B384F9" stroke-opacity="1.000000" stroke-width="2.000000" stroke-linejoin="round" stroke-linecap="round"/>
	<path id="Stroke-30" d="M389.58 138.739C389.604 139.603 389.616 140.471 389.616 141.341C389.616 173.296 373.39 201.452 348.744 217.991" stroke="#B384F9" stroke-opacity="1.000000" stroke-width="2.000000" stroke-linejoin="round" stroke-linecap="round"/>
	<path id="Stroke-32" d="M234.36 207.104C216.657 190.302 205.614 166.524 205.614 140.164C205.614 89.2505 246.804 47.9785 297.614 47.9785C318.129 47.9785 337.078 54.7085 352.378 66.0825" stroke="#B384F9" stroke-opacity="1.000000" stroke-width="2.000000" stroke-linejoin="round" stroke-linecap="round"/>
	<path id="Stroke-34" d="M413.018 66.0581L430.991 66.0581C437.493 66.0581 442.767 71.3394 442.767 77.8569C442.767 84.3726 437.493 89.6538 430.991 89.6538L413.018 89.6538C406.518 89.6538 401.245 94.938 401.245 101.453C401.245 107.968 406.518 113.251 413.018 113.251L468.147 113.251C474.648 113.251 479.92 118.534 479.92 125.049C479.92 131.565 474.648 136.849 468.147 136.849L363.674 136.849C357.172 136.849 351.9 131.565 351.9 125.049C351.9 118.533 357.172 113.251 363.674 113.251" stroke="#C498FC" stroke-opacity="1.000000" stroke-width="2.000000" stroke-linejoin="round" stroke-linecap="round"/>
	<path id="Stroke-36" d="M374.829 113.251C381.332 113.251 386.605 107.971 386.605 101.453C386.605 94.937 381.332 89.6548 374.829 89.6548L335.168 89.6548C328.663 89.6548 323.392 84.3726 323.392 77.856C323.392 71.3403 328.664 66.0571 335.168 66.0571L389.264 66.0571" stroke="#C498FC" stroke-opacity="1.000000" stroke-width="2.000000" stroke-linejoin="round" stroke-linecap="round"/>
	<path id="Stroke-38" d="M399.647 62.6094L392.868 69.1699" stroke="#C498FC" stroke-opacity="1.000000" stroke-width="2.000000" stroke-linejoin="round" stroke-linecap="round"/>
	<path id="Stroke-40" d="M409.164 62.6094L402.385 69.1699" stroke="#C498FC" stroke-opacity="1.000000" stroke-width="2.000000" stroke-linejoin="round" stroke-linecap="round"/>
	<path id="Stroke-42" d="M163.027 214.797L182.552 214.797C189.068 214.797 194.351 209.504 194.351 202.975C194.351 196.446 189.068 191.153 182.552 191.153L163.057 191.153C156.541 191.153 151.258 185.86 151.258 179.331L151.258 178.917C151.258 172.389 156.541 167.096 163.057 167.096L209.782 167.096" stroke="#C498FC" stroke-opacity="1.000000" stroke-width="2.000000" stroke-linejoin="round" stroke-linecap="round"/>
	<path id="Stroke-44" d="M89.2429 214.797L138.32 214.797" stroke="#C498FC" stroke-opacity="1.000000" stroke-width="2.000000" stroke-linejoin="round" stroke-linecap="round"/>
	<path id="Stroke-46" d="M248.497 238.728L138.359 238.728" stroke="#C498FC" stroke-opacity="1.000000" stroke-width="2.000000" stroke-linejoin="round" stroke-linecap="round"/>
	<path id="Stroke-48" d="M89.2429 214.797C82.6483 214.797 77.2545 220.153 77.2545 226.762C77.2545 233.372 82.6483 238.728 89.2429 238.728L108.036 238.728" stroke="#C498FC" stroke-opacity="1.000000" stroke-width="2.000000" stroke-linejoin="round" stroke-linecap="round"/>
	<path id="Stroke-50" d="M121.33 235.744L114.552 242.308" stroke="#C498FC" stroke-opacity="1.000000" stroke-width="2.000000" stroke-linejoin="round" stroke-linecap="round"/>
	<path id="Stroke-52" d="M130.847 235.744L124.068 242.308" stroke="#C498FC" stroke-opacity="1.000000" stroke-width="2.000000" stroke-linejoin="round" stroke-linecap="round"/>
	<path id="Stroke-54" d="M150.1 220.046L150.1 210.142" stroke="#C498FC" stroke-opacity="1.000000" stroke-width="2.000000" stroke-linejoin="round" stroke-linecap="round"/>
	<path id="Stroke-56" d="M155.042 215.095L145.148 215.097" stroke="#C498FC" stroke-opacity="1.000000" stroke-width="2.000000" stroke-linejoin="round" stroke-linecap="round"/>
</svg>
