<svg width="22.070908" height="26.837891" viewBox="0 0 22.0709 26.8379" fill="none" xmlns="http://www.w3.org/2000/svg" xmlns:xlink="http://www.w3.org/1999/xlink">
	<desc>
			Created with Pixso.
	</desc>
	<defs/>
	<path d="M6.52095 2.13477C6.52095 0.956299 7.30748 0 8.27659 0L13.7943 0C14.7634 0 15.55 0.956299 15.55 2.13477L15.55 4.87964L20.3153 4.87964C21.2844 4.87964 22.0709 5.83594 22.0709 7.0144L22.0709 24.7031C22.0709 25.2693 21.8859 25.8123 21.5567 26.2126C21.2274 26.613 20.7809 26.8379 20.3153 26.8379L1.75564 26.8379C1.29002 26.8379 0.84346 26.613 0.514214 26.2126C0.184967 25.8123 0 25.2693 0 24.7031L0 7.0144C0 5.83594 0.78653 4.87964 1.75564 4.87964L6.52095 4.87964L6.52095 2.13477ZM1.50484 14.6267L1.50484 24.7031C1.50484 24.8716 1.6172 25.0081 1.75564 25.0081L20.3153 25.0081C20.3818 25.0081 20.4456 24.9761 20.4926 24.9187C20.5396 24.8616 20.5661 24.7839 20.5661 24.7031L20.5661 14.6267C19.7963 15.4233 18.8181 15.8604 17.8072 15.8589L4.26369 15.8589C3.25282 15.8604 2.27463 15.4233 1.50484 14.6267ZM20.5661 10.6741L20.5661 7.0144C20.5661 6.93359 20.5396 6.85596 20.4926 6.79883C20.4456 6.7417 20.3818 6.70947 20.3153 6.70947L1.75564 6.70947C1.68913 6.70947 1.62533 6.7417 1.57829 6.79883C1.53126 6.85596 1.50484 6.93359 1.50484 7.0144L1.50484 10.6741C1.50484 11.564 1.7955 12.4172 2.31289 13.0464C2.83028 13.6755 3.53201 14.0291 4.26369 14.0291L17.8072 14.0291C18.5389 14.0291 19.2406 13.6755 19.758 13.0464C20.2754 12.4172 20.5661 11.564 20.5661 10.6741ZM14.0451 2.13477C14.0451 2.05396 14.0187 1.97632 13.9717 1.91919C13.9246 1.86206 13.8608 1.82983 13.7943 1.82983L8.27659 1.82983C8.21007 1.82983 8.14628 1.86206 8.09924 1.91919C8.05221 1.97632 8.02578 2.05396 8.02578 2.13477L8.02578 4.87964L14.0451 4.87964L14.0451 2.13477Z" fill="#FFFFFF" fill-opacity="1.000000" fill-rule="nonzero"/>
</svg>
